<?xml version="1.0" encoding="utf-8"?>
<!-- Generator: Adobe Illustrator 27.9.0, SVG Export Plug-In . SVG Version: 6.00 Build 0)  -->
<svg version="1.1" id="Layer_1" xmlns="http://www.w3.org/2000/svg" xmlns:xlink="http://www.w3.org/1999/xlink" x="0px" y="0px"
	 width="135px" height="50.6px" viewBox="0 0 135 50.6" style="enable-background:new 0 0 135 50.6;" xml:space="preserve">
<style type="text/css">
	.st0{fill:#FFFFFF;}
	.st1{fill-rule:evenodd;clip-rule:evenodd;fill:#FFFFFF;}
</style>
<g id="Group_1">
	<path id="Path_1" class="st0" d="M131.5,21.3c-0.2-0.2-0.3-0.3-0.5-0.4c0.4,0,0.7-0.2,1-0.4c0.2-0.3,0.3-0.6,0.3-0.9
		c0-0.3-0.1-0.5-0.2-0.8c-0.1-0.2-0.3-0.4-0.6-0.5c-0.4-0.1-0.7-0.1-1.1-0.1h-2.1v4.9h1V21h0.2c0.2,0,0.3,0,0.5,0.1
		c0.1,0,0.2,0.1,0.3,0.2c0.2,0.2,0.4,0.5,0.5,0.7l0.7,1.1h1.2l-0.6-1C131.9,21.8,131.7,21.6,131.5,21.3 M130.3,20.2h-1V19h1.5
		c0.3,0,0.5,0.3,0.5,0.6c0,0.1,0,0.3-0.1,0.4c-0.1,0.1-0.2,0.2-0.3,0.2C130.7,20.2,130.5,20.2,130.3,20.2"/>
	<path id="Path_2" class="st0" d="M133.6,17.2c-0.9-0.9-2.1-1.4-3.4-1.4c-2.6,0-4.8,2.1-4.8,4.8c0,2.6,2.1,4.8,4.8,4.8
		c1.3,0,2.5-0.5,3.3-1.4c0.9-0.9,1.4-2.1,1.4-3.4C135,19.4,134.5,18.2,133.6,17.2 M132.9,23.3c-0.7,0.7-1.7,1.1-2.7,1.1
		c-2.1,0-3.8-1.7-3.8-3.8c0-1,0.4-2,1.1-2.7c0.7-0.7,1.7-1.1,2.7-1.1c2.1,0,3.8,1.7,3.8,3.8C134,21.6,133.6,22.6,132.9,23.3"/>
	<path id="Path_3" class="st0" d="M1,14.6c-0.6,0.6-1,1.4-1,2.2v26.9h6.6V13.7H3.3C2.5,13.7,1.6,14,1,14.6"/>
	<path id="Path_4" class="st0" d="M21.7,13.7h-9.2c-0.9,0-1.7,0.3-2.4,0.9c-0.6,0.6-1,1.4-1,2.2v26.9h10.7c2.3,0.1,4.5-0.1,6.7-0.6
		c1.6-0.4,3-1.1,4.3-2.1c1.7-1.3,3.1-3.1,3.9-5.1c0.9-2.3,1.3-4.8,1.3-7.3c0-5-1.2-8.8-3.6-11.4C30.2,14.9,26.6,13.7,21.7,13.7
		 M27.5,36c-1.4,1.5-3.6,2.3-6.7,2.3h-5.3V18.9h6.1c2.7,0,4.7,0.8,5.9,2.4c1.3,1.6,1.9,4,1.9,7.4C29.5,32.2,28.9,34.6,27.5,36"/>
	<path id="Path_5" class="st0" d="M50.4,20.5c-1.6,0-3.3,0.2-4.9,0.6c-1.5,0.4-2.9,1-4.1,1.9c-1.3,1-2.3,2.2-2.9,3.7
		c-0.8,1.8-1.1,3.8-1.1,5.7v11.3H44v-12c-0.1-1.4,0.3-2.8,1.3-3.8c1.1-0.9,2.5-1.3,4-1.2h2.1v-6.2H50.4L50.4,20.5z"/>
	<path id="Path_6" class="st0" d="M56.7,20.5h-3.3v23.3h6.5V23.5c0-0.8-0.3-1.6-0.9-2.1C58.3,20.8,57.5,20.5,56.7,20.5"/>
	<path id="Path_7" class="st0" d="M79.9,20.5c-1.4-0.1-2.6,0.8-3,2.1l-4.3,14.2l-4.9-16.3h-6.8l8.6,23.3h6.6l8.7-23.3L79.9,20.5z"/>
	<path id="Path_8" class="st0" d="M56.3,12c-1.9,0.1-3.3,1.7-3.2,3.5s1.7,3.3,3.5,3.2c1.8-0.1,3.2-1.6,3.2-3.4
		C59.8,13.5,58.2,12,56.3,12"/>
	<path id="Path_9" class="st1" d="M120.5,7.5c-1.9-3.5-5.2-6-9.1-7c-8-2.2-16.2,2.6-18.3,10.5c0,0,0,0.1,0,0.1
		c-0.2,0.6-0.3,1.2-0.4,1.8c1.9-1,4.1-1.6,6.3-1.5c2-4.7,7.5-6.9,12.2-4.9c1.8,0.8,3.4,2.2,4.4,3.9c1,1.7,1.4,3.7,1.2,5.7
		c1.9,1.1,3.5,2.7,4.6,4.6c0.2-0.6,0.5-1.2,0.7-1.9C123.1,15.1,122.6,10.9,120.5,7.5"/>
	<path id="Path_10" class="st1" d="M102.9,24.9c-1.2,0-2.4,0.4-3.3,1.2c-0.9,0.9-1.4,2.2-1.4,3.5h9.4c0-1.3-0.5-2.5-1.3-3.5
		C105.4,25.3,104.2,24.8,102.9,24.9"/>
	<path id="Path_11" class="st1" d="M120.4,22.7c-0.1-0.2-0.2-0.4-0.3-0.6c-0.1-0.2-0.3-0.4-0.4-0.7c-0.9-1.3-2-2.5-3.4-3.3
		c-0.9-0.5-1.8-0.9-2.7-1.1l-12.3-3.3c-0.9-0.2-1.9-0.4-2.8-0.4c-1.9,0-3.8,0.5-5.4,1.5c-0.2,0.1-0.3,0.2-0.5,0.3
		c-2.3,1.4-3.9,3.7-4.6,6.2l-3.3,12.3c-1.5,5.8,1.9,11.7,7.6,13.2c0,0,0,0,0,0l12.4,3.3c5.8,1.5,11.6-1.9,13.2-7.6l3.3-12.3
		C121.9,27.7,121.6,25,120.4,22.7 M114.3,32.6V33c0,0.2,0,0.4-0.1,0.6h-16c-0.1,1.5,0.4,2.9,1.4,4c0.9,1,2.3,1.5,3.6,1.4
		c0.9,0,1.9-0.2,2.7-0.6c0.2-0.1,0.4-0.2,0.5-0.3l0.5-0.5c0.2-0.3,0.4-0.5,0.7-0.7c0.5-0.3,1.1-0.5,1.7-0.4h4.6
		c-0.6,2.3-1.9,4.3-3.9,5.6c-2.1,1.4-4.7,2.1-7.2,2c-3.1,0.2-6.1-1-8.2-3.2c-2-2.1-3-5.1-3-9c0-3.7,1-6.6,2.9-8.7
		c2.1-2.2,5.1-3.4,8.2-3.2c3.7,0,6.6,1,8.6,3.1c2,2.2,3,5.2,3,9L114.3,32.6z"/>
</g>
</svg>
